<mxfile version="13.6.5" type="github" host="app.diagrams.net" modified="2020-09-15T00:50:48.568Z" agent="5.0 (Windows NT 10.0; Win64; x64) AppleWebKit/537.36 (KHTML, like Gecko) Chrome/70.0.3538.102 Safari/537.36 Edge/18.18363" etag="56R6csdtY6T5N2ZkBpY-">
  <diagram id="fcM5CsyXGU9ZUou16KkU" name="Page-1">
    <mxGraphModel grid="1" dx="782" dy="466" gridSize="10" guides="1" tooltips="1" connect="1" arrows="1" fold="1" page="1" pageScale="1" pageWidth="850" pageHeight="1100" math="0" shadow="0">
      <root>
        <mxCell id="0" />
        <mxCell id="1" parent="0" />
        <mxCell id="mj-4UGhVfxBHdO6IU6nH-1" value="" parent="1" style="ellipse;html=1;shape=startState;fillColor=#000000;strokeColor=#ff0000;" vertex="1">
          <mxGeometry as="geometry" y="50" x="200" height="30" width="30" />
        </mxCell>
        <mxCell id="mj-4UGhVfxBHdO6IU6nH-2" value="" parent="1" target="mj-4UGhVfxBHdO6IU6nH-3" edge="1" style="edgeStyle=orthogonalEdgeStyle;html=1;verticalAlign=bottom;endArrow=open;endSize=8;strokeColor=#ff0000;entryX=0.458;entryY=0;entryDx=0;entryDy=0;entryPerimeter=0;" source="mj-4UGhVfxBHdO6IU6nH-1">
          <mxGeometry as="geometry" relative="1">
            <mxPoint as="targetPoint" y="80" x="395" />
          </mxGeometry>
        </mxCell>
        <mxCell id="mj-4UGhVfxBHdO6IU6nH-3" value="Login" parent="1" style="rounded=1;whiteSpace=wrap;html=1;" vertex="1">
          <mxGeometry as="geometry" y="110" x="160" height="60" width="120" />
        </mxCell>
        <mxCell id="mj-4UGhVfxBHdO6IU6nH-4" value="F: Input Form Object&lt;br&gt;instantiated with user&amp;nbsp;&lt;br&gt;input" parent="1" style="html=1;fillColor=#f5f5f5;strokeColor=#666666;fontColor=#333333;" vertex="1">
          <mxGeometry as="geometry" y="220" x="155" height="50" width="130" />
        </mxCell>
        <mxCell id="mj-4UGhVfxBHdO6IU6nH-6" value="" parent="1" target="mj-4UGhVfxBHdO6IU6nH-4" edge="1" style="endArrow=classic;html=1;exitX=0.5;exitY=1;exitDx=0;exitDy=0;entryX=0.5;entryY=0;entryDx=0;entryDy=0;" source="mj-4UGhVfxBHdO6IU6nH-3">
          <mxGeometry as="geometry" relative="1" height="50" width="50">
            <mxPoint as="sourcePoint" y="270" x="370" />
            <mxPoint as="targetPoint" y="184" x="398" />
          </mxGeometry>
        </mxCell>
        <mxCell id="mj-4UGhVfxBHdO6IU6nH-10" value="«DataStore»&lt;br&gt;&lt;br&gt;User Database" parent="1" style="html=1;dropTarget=0;fillColor=#f9f7ed;strokeColor=#36393d;" vertex="1">
          <mxGeometry as="geometry" y="330" x="130" height="90" width="180" />
        </mxCell>
        <mxCell id="mj-4UGhVfxBHdO6IU6nH-11" value="" parent="mj-4UGhVfxBHdO6IU6nH-10" style="shape=component;jettyWidth=8;jettyHeight=4;" vertex="1">
          <mxGeometry as="geometry" relative="1" x="1" height="20" width="20">
            <mxPoint as="offset" y="7" x="-27" />
          </mxGeometry>
        </mxCell>
        <mxCell id="mj-4UGhVfxBHdO6IU6nH-13" value="" parent="1" target="mj-4UGhVfxBHdO6IU6nH-10" edge="1" style="endArrow=classic;html=1;exitX=0.5;exitY=1;exitDx=0;exitDy=0;entryX=0.5;entryY=0;entryDx=0;entryDy=0;" source="mj-4UGhVfxBHdO6IU6nH-4">
          <mxGeometry as="geometry" relative="1" height="50" width="50">
            <mxPoint as="sourcePoint" y="246" x="396" />
            <mxPoint as="targetPoint" y="280" x="394" />
          </mxGeometry>
        </mxCell>
        <mxCell id="mj-4UGhVfxBHdO6IU6nH-15" value="Verify&amp;nbsp;&lt;br&gt;Credentials" parent="1" style="rhombus;whiteSpace=wrap;html=1;fillColor=#cce5ff;strokeColor=#36393d;" vertex="1">
          <mxGeometry as="geometry" y="290" x="520" height="55" width="90" />
        </mxCell>
        <mxCell id="mj-4UGhVfxBHdO6IU6nH-16" value="no" parent="1" target="mj-4UGhVfxBHdO6IU6nH-22" edge="1" style="edgeStyle=orthogonalEdgeStyle;html=1;align=left;verticalAlign=bottom;endArrow=open;endSize=8;entryX=0.41;entryY=0.957;entryDx=0;entryDy=0;entryPerimeter=0;" source="mj-4UGhVfxBHdO6IU6nH-15">
          <mxGeometry as="geometry" relative="1" x="-1">
            <mxPoint as="targetPoint" y="270" x="565" />
          </mxGeometry>
        </mxCell>
        <mxCell id="mj-4UGhVfxBHdO6IU6nH-17" value="yes" parent="1" target="mj-4UGhVfxBHdO6IU6nH-20" edge="1" style="edgeStyle=orthogonalEdgeStyle;html=1;align=left;verticalAlign=top;endArrow=open;endSize=8;entryX=0.406;entryY=0.143;entryDx=0;entryDy=0;entryPerimeter=0;" source="mj-4UGhVfxBHdO6IU6nH-15">
          <mxGeometry as="geometry" relative="1" x="-1">
            <mxPoint as="targetPoint" y="380" x="565" />
          </mxGeometry>
        </mxCell>
        <mxCell id="mj-4UGhVfxBHdO6IU6nH-19" value="" parent="1" target="mj-4UGhVfxBHdO6IU6nH-10" edge="1" style="endArrow=classic;html=1;entryX=1;entryY=0.25;entryDx=0;entryDy=0;">
          <mxGeometry as="geometry" relative="1" height="50" width="50">
            <mxPoint as="sourcePoint" y="260" x="500" />
            <mxPoint as="targetPoint" y="280" x="540" />
          </mxGeometry>
        </mxCell>
        <mxCell id="mj-4UGhVfxBHdO6IU6nH-20" value="U: UserDatabase Object&lt;br&gt;corresponding to credentials&lt;br&gt;returned" parent="1" style="html=1;fillColor=#f5f5f5;strokeColor=#666666;fontColor=#333333;" vertex="1">
          <mxGeometry as="geometry" y="390" x="500" height="70" width="160" />
        </mxCell>
        <mxCell id="mj-4UGhVfxBHdO6IU6nH-22" value="U: UserDatabase Object&lt;br&gt;instantiated with user input&lt;br&gt;returned" parent="1" style="html=1;fillColor=#f5f5f5;strokeColor=#666666;fontColor=#333333;" vertex="1">
          <mxGeometry as="geometry" y="190" x="500" height="70" width="160" />
        </mxCell>
        <mxCell id="mj-4UGhVfxBHdO6IU6nH-23" value="" parent="1" target="mj-4UGhVfxBHdO6IU6nH-22" edge="1" style="endArrow=classic;html=1;exitX=1;exitY=0.25;exitDx=0;exitDy=0;entryX=0;entryY=0.5;entryDx=0;entryDy=0;" source="mj-4UGhVfxBHdO6IU6nH-4">
          <mxGeometry as="geometry" relative="1" height="50" width="50">
            <mxPoint as="sourcePoint" y="210" x="460" />
            <mxPoint as="targetPoint" y="212" x="500" />
          </mxGeometry>
        </mxCell>
        <mxCell id="mj-4UGhVfxBHdO6IU6nH-24" value="" parent="1" target="mj-4UGhVfxBHdO6IU6nH-15" edge="1" style="endArrow=classic;html=1;entryX=0;entryY=0.5;entryDx=0;entryDy=0;exitX=1;exitY=1;exitDx=0;exitDy=0;" source="mj-4UGhVfxBHdO6IU6nH-10">
          <mxGeometry as="geometry" relative="1" height="50" width="50">
            <mxPoint as="sourcePoint" y="385" x="350" />
            <mxPoint as="targetPoint" y="335" x="400" />
          </mxGeometry>
        </mxCell>
        <mxCell id="mj-4UGhVfxBHdO6IU6nH-25" value="Dashboard" parent="1" style="rounded=1;whiteSpace=wrap;html=1;" vertex="1">
          <mxGeometry as="geometry" y="500" x="520" height="60" width="120" />
        </mxCell>
        <mxCell id="mj-4UGhVfxBHdO6IU6nH-26" value="" parent="1" target="mj-4UGhVfxBHdO6IU6nH-25" edge="1" style="endArrow=classic;html=1;entryX=0.397;entryY=-0.028;entryDx=0;entryDy=0;exitX=0.419;exitY=1.014;exitDx=0;exitDy=0;exitPerimeter=0;entryPerimeter=0;" source="mj-4UGhVfxBHdO6IU6nH-20">
          <mxGeometry as="geometry" relative="1" height="50" width="50">
            <mxPoint as="sourcePoint" y="470" x="470" />
            <mxPoint as="targetPoint" y="420" x="520" />
          </mxGeometry>
        </mxCell>
        <mxCell id="mj-4UGhVfxBHdO6IU6nH-28" value="" parent="1" style="ellipse;html=1;shape=endState;fillColor=#000000;strokeColor=#ff0000;" vertex="1">
          <mxGeometry as="geometry" y="590" x="560" height="30" width="30" />
        </mxCell>
        <mxCell id="mj-4UGhVfxBHdO6IU6nH-29" value="" parent="1" target="mj-4UGhVfxBHdO6IU6nH-28" edge="1" style="endArrow=classic;html=1;entryX=0.5;entryY=0;entryDx=0;entryDy=0;exitX=0.442;exitY=1.017;exitDx=0;exitDy=0;exitPerimeter=0;" source="mj-4UGhVfxBHdO6IU6nH-25">
          <mxGeometry as="geometry" relative="1" height="50" width="50">
            <mxPoint as="sourcePoint" y="560" x="560" />
            <mxPoint as="targetPoint" y="510" x="610" />
          </mxGeometry>
        </mxCell>
        <mxCell id="mj-4UGhVfxBHdO6IU6nH-31" value="" parent="1" style="rounded=1;whiteSpace=wrap;html=1;opacity=20;fillColor=#D4E1F5;shadow=1;gradientColor=#ffffff;strokeWidth=3;perimeterSpacing=3;" vertex="1">
          <mxGeometry as="geometry" y="10" x="80" height="620" width="660" />
        </mxCell>
      </root>
    </mxGraphModel>
  </diagram>
</mxfile>
